<mxfile host="app.diagrams.net" modified="2021-09-20T07:55:54.482Z" agent="5.0 (Windows)" etag="AmFT0clgr_ztVmGgFUbp" version="15.2.9" type="github">
  <diagram id="HjtJ_0VGUGNNKk8JA-kV" name="Page-1">
    <mxGraphModel dx="1422" dy="791" grid="1" gridSize="10" guides="1" tooltips="1" connect="1" arrows="1" fold="1" page="1" pageScale="1" pageWidth="827" pageHeight="1169" math="0" shadow="0">
      <root>
        <mxCell id="0" />
        <mxCell id="1" parent="0" />
        <mxCell id="rtaOQKBzUmMfZ9k4s3Sf-1" value="" style="rounded=0;whiteSpace=wrap;html=1;" parent="1" vertex="1">
          <mxGeometry x="90" y="350" width="120" height="60" as="geometry" />
        </mxCell>
      </root>
    </mxGraphModel>
  </diagram>
</mxfile>
